<svg width="643" height="457" viewBox="0 0 643 457" fill="none" xmlns="http://www.w3.org/2000/svg">
<g filter="url(#filter0_d)">
<path d="M501 10H181C179.895 10 179 10.8954 179 12V298C179 299.105 179.895 300 181 300H501C502.105 300 503 299.105 503 298V12C503 10.8954 502.105 10 501 10Z" fill="white"/>
</g>
<path d="M468 52H209C206.791 52 205 53.7909 205 56V81C205 83.2091 206.791 85 209 85H468C470.209 85 472 83.2091 472 81V56C472 53.7909 470.209 52 468 52Z" fill="#F1F1F3"/>
<path d="M206.812 47H205.981V39.8613H209.961V40.5986H206.812V43.2109H209.771V43.9482H206.812V47ZM211.787 41.6484V45.1201C211.787 45.5563 211.886 45.8818 212.085 46.0967C212.284 46.3115 212.594 46.4189 213.018 46.4189C213.577 46.4189 213.986 46.266 214.243 45.96C214.504 45.654 214.634 45.1543 214.634 44.4609V41.6484H215.444V47H214.775L214.658 46.2822H214.614C214.448 46.5459 214.217 46.7477 213.921 46.8877C213.628 47.0277 213.293 47.0977 212.915 47.0977C212.264 47.0977 211.776 46.943 211.45 46.6338C211.128 46.3245 210.967 45.8298 210.967 45.1494V41.6484H211.787ZM217.979 47H217.168V39.4023H217.979V47ZM220.508 47H219.697V39.4023H220.508V47ZM230.522 47H229.575L225.674 41.0088H225.635C225.687 41.7119 225.713 42.3564 225.713 42.9424V47H224.946V39.8613H225.884L229.775 45.8281H229.814C229.808 45.7402 229.793 45.4587 229.771 44.9834C229.748 44.5049 229.74 44.1631 229.746 43.958V39.8613H230.522V47ZM235.654 47L235.493 46.2383H235.454C235.187 46.5736 234.92 46.8014 234.653 46.9219C234.39 47.0391 234.059 47.0977 233.662 47.0977C233.132 47.0977 232.715 46.9609 232.412 46.6875C232.113 46.4141 231.963 46.0251 231.963 45.5205C231.963 44.4398 232.827 43.8734 234.556 43.8213L235.464 43.792V43.46C235.464 43.04 235.373 42.7308 235.19 42.5322C235.011 42.3304 234.723 42.2295 234.326 42.2295C233.88 42.2295 233.376 42.3662 232.812 42.6396L232.563 42.0195C232.827 41.8763 233.115 41.764 233.428 41.6826C233.743 41.6012 234.059 41.5605 234.375 41.5605C235.013 41.5605 235.485 41.7021 235.791 41.9854C236.1 42.2686 236.255 42.7227 236.255 43.3477V47H235.654ZM233.823 46.4287C234.328 46.4287 234.723 46.2904 235.01 46.0137C235.299 45.737 235.444 45.3496 235.444 44.8516V44.3682L234.634 44.4023C233.989 44.4251 233.524 44.526 233.237 44.7051C232.954 44.8809 232.812 45.1559 232.812 45.5303C232.812 45.8232 232.9 46.0462 233.076 46.1992C233.255 46.3522 233.504 46.4287 233.823 46.4287ZM244.751 47V43.5186C244.751 43.0921 244.66 42.7731 244.478 42.5615C244.295 42.3467 244.012 42.2393 243.628 42.2393C243.123 42.2393 242.751 42.3841 242.51 42.6738C242.269 42.9635 242.148 43.4095 242.148 44.0117V47H241.338V43.5186C241.338 43.0921 241.247 42.7731 241.064 42.5615C240.882 42.3467 240.597 42.2393 240.21 42.2393C239.702 42.2393 239.329 42.3923 239.092 42.6982C238.857 43.001 238.74 43.499 238.74 44.1924V47H237.93V41.6484H238.589L238.721 42.3809H238.76C238.913 42.1204 239.128 41.917 239.404 41.7705C239.684 41.624 239.997 41.5508 240.342 41.5508C241.178 41.5508 241.725 41.8535 241.982 42.459H242.021C242.181 42.179 242.412 41.9577 242.715 41.7949C243.018 41.6322 243.363 41.5508 243.75 41.5508C244.355 41.5508 244.808 41.707 245.107 42.0195C245.41 42.3288 245.562 42.8252 245.562 43.5088V47H244.751ZM249.497 47.0977C248.706 47.0977 248.081 46.8568 247.622 46.375C247.166 45.8932 246.938 45.2243 246.938 44.3682C246.938 43.5055 247.15 42.8203 247.573 42.3125C248 41.8047 248.571 41.5508 249.287 41.5508C249.958 41.5508 250.488 41.7721 250.879 42.2148C251.27 42.6543 251.465 43.2354 251.465 43.958V44.4707H247.778C247.795 45.099 247.952 45.5758 248.252 45.9014C248.555 46.2269 248.979 46.3896 249.526 46.3896C250.103 46.3896 250.672 46.2692 251.235 46.0283V46.751C250.949 46.8747 250.677 46.9626 250.42 47.0146C250.166 47.07 249.858 47.0977 249.497 47.0977ZM249.277 42.2295C248.848 42.2295 248.504 42.3695 248.247 42.6494C247.993 42.9294 247.843 43.3167 247.798 43.8115H250.596C250.596 43.3005 250.482 42.9098 250.254 42.6396C250.026 42.3662 249.701 42.2295 249.277 42.2295Z" fill="#565658"/>
<path d="M468 121H209C206.791 121 205 122.791 205 125V150C205 152.209 206.791 154 209 154H468C470.209 154 472 152.209 472 150V125C472 122.791 470.209 121 468 121Z" fill="#F1F1F3"/>
<path d="M209.961 116H205.981V108.861H209.961V109.599H206.812V111.898H209.771V112.631H206.812V115.258H209.961V116ZM218.247 116V112.519C218.247 112.092 218.156 111.773 217.974 111.562C217.791 111.347 217.508 111.239 217.124 111.239C216.619 111.239 216.247 111.384 216.006 111.674C215.765 111.964 215.645 112.41 215.645 113.012V116H214.834V112.519C214.834 112.092 214.743 111.773 214.561 111.562C214.378 111.347 214.093 111.239 213.706 111.239C213.198 111.239 212.826 111.392 212.588 111.698C212.354 112.001 212.236 112.499 212.236 113.192V116H211.426V110.648H212.085L212.217 111.381H212.256C212.409 111.12 212.624 110.917 212.9 110.771C213.18 110.624 213.493 110.551 213.838 110.551C214.674 110.551 215.221 110.854 215.479 111.459H215.518C215.677 111.179 215.908 110.958 216.211 110.795C216.514 110.632 216.859 110.551 217.246 110.551C217.852 110.551 218.304 110.707 218.604 111.02C218.906 111.329 219.058 111.825 219.058 112.509V116H218.247ZM224.023 116L223.862 115.238H223.823C223.556 115.574 223.289 115.801 223.022 115.922C222.759 116.039 222.428 116.098 222.031 116.098C221.501 116.098 221.084 115.961 220.781 115.688C220.482 115.414 220.332 115.025 220.332 114.521C220.332 113.44 221.196 112.873 222.925 112.821L223.833 112.792V112.46C223.833 112.04 223.742 111.731 223.56 111.532C223.381 111.33 223.092 111.229 222.695 111.229C222.249 111.229 221.745 111.366 221.182 111.64L220.933 111.02C221.196 110.876 221.484 110.764 221.797 110.683C222.113 110.601 222.428 110.561 222.744 110.561C223.382 110.561 223.854 110.702 224.16 110.985C224.469 111.269 224.624 111.723 224.624 112.348V116H224.023ZM222.192 115.429C222.697 115.429 223.092 115.29 223.379 115.014C223.669 114.737 223.813 114.35 223.813 113.852V113.368L223.003 113.402C222.358 113.425 221.893 113.526 221.606 113.705C221.323 113.881 221.182 114.156 221.182 114.53C221.182 114.823 221.27 115.046 221.445 115.199C221.624 115.352 221.873 115.429 222.192 115.429ZM227.109 116H226.299V110.648H227.109V116ZM226.23 109.198C226.23 109.013 226.276 108.878 226.367 108.793C226.458 108.705 226.572 108.661 226.709 108.661C226.839 108.661 226.951 108.705 227.046 108.793C227.14 108.881 227.188 109.016 227.188 109.198C227.188 109.381 227.14 109.517 227.046 109.608C226.951 109.696 226.839 109.74 226.709 109.74C226.572 109.74 226.458 109.696 226.367 109.608C226.276 109.517 226.23 109.381 226.23 109.198ZM229.639 116H228.828V108.402H229.639V116ZM238.564 116L237.676 113.729H234.814L233.936 116H233.096L235.918 108.832H236.616L239.424 116H238.564ZM237.417 112.982L236.587 110.771C236.479 110.491 236.369 110.147 236.255 109.74C236.183 110.053 236.081 110.396 235.947 110.771L235.107 112.982H237.417ZM243.926 115.282H243.882C243.507 115.826 242.948 116.098 242.202 116.098C241.502 116.098 240.957 115.858 240.566 115.38C240.179 114.901 239.985 114.221 239.985 113.339C239.985 112.457 240.181 111.771 240.571 111.283C240.962 110.795 241.506 110.551 242.202 110.551C242.928 110.551 243.485 110.814 243.872 111.342H243.936L243.901 110.956L243.882 110.58V108.402H244.692V116H244.033L243.926 115.282ZM242.305 115.419C242.858 115.419 243.258 115.269 243.506 114.97C243.757 114.667 243.882 114.18 243.882 113.51V113.339C243.882 112.58 243.755 112.04 243.501 111.718C243.25 111.392 242.848 111.229 242.295 111.229C241.82 111.229 241.455 111.415 241.201 111.786C240.951 112.154 240.825 112.675 240.825 113.349C240.825 114.032 240.951 114.548 241.201 114.896C241.452 115.245 241.82 115.419 242.305 115.419ZM250.059 115.282H250.015C249.64 115.826 249.08 116.098 248.335 116.098C247.635 116.098 247.09 115.858 246.699 115.38C246.312 114.901 246.118 114.221 246.118 113.339C246.118 112.457 246.313 111.771 246.704 111.283C247.095 110.795 247.638 110.551 248.335 110.551C249.061 110.551 249.618 110.814 250.005 111.342H250.068L250.034 110.956L250.015 110.58V108.402H250.825V116H250.166L250.059 115.282ZM248.438 115.419C248.991 115.419 249.391 115.269 249.639 114.97C249.889 114.667 250.015 114.18 250.015 113.51V113.339C250.015 112.58 249.888 112.04 249.634 111.718C249.383 111.392 248.981 111.229 248.428 111.229C247.952 111.229 247.588 111.415 247.334 111.786C247.083 112.154 246.958 112.675 246.958 113.349C246.958 114.032 247.083 114.548 247.334 114.896C247.585 115.245 247.952 115.419 248.438 115.419ZM254.99 110.551C255.228 110.551 255.441 110.57 255.63 110.609L255.518 111.361C255.296 111.312 255.101 111.288 254.932 111.288C254.499 111.288 254.128 111.464 253.818 111.815C253.512 112.167 253.359 112.605 253.359 113.129V116H252.549V110.648H253.218L253.311 111.64H253.35C253.548 111.291 253.787 111.023 254.067 110.834C254.347 110.645 254.655 110.551 254.99 110.551ZM258.892 116.098C258.101 116.098 257.476 115.857 257.017 115.375C256.561 114.893 256.333 114.224 256.333 113.368C256.333 112.506 256.545 111.82 256.968 111.312C257.394 110.805 257.965 110.551 258.682 110.551C259.352 110.551 259.883 110.772 260.273 111.215C260.664 111.654 260.859 112.235 260.859 112.958V113.471H257.173C257.189 114.099 257.347 114.576 257.646 114.901C257.949 115.227 258.374 115.39 258.921 115.39C259.497 115.39 260.067 115.269 260.63 115.028V115.751C260.343 115.875 260.072 115.963 259.814 116.015C259.561 116.07 259.253 116.098 258.892 116.098ZM258.672 111.229C258.242 111.229 257.899 111.369 257.642 111.649C257.388 111.929 257.238 112.317 257.192 112.812H259.99C259.99 112.3 259.876 111.91 259.648 111.64C259.421 111.366 259.095 111.229 258.672 111.229ZM265.698 114.54C265.698 115.038 265.513 115.422 265.142 115.692C264.771 115.963 264.25 116.098 263.579 116.098C262.869 116.098 262.316 115.985 261.919 115.761V115.009C262.176 115.139 262.451 115.242 262.744 115.316C263.04 115.391 263.325 115.429 263.599 115.429C264.022 115.429 264.347 115.362 264.575 115.229C264.803 115.092 264.917 114.885 264.917 114.608C264.917 114.4 264.826 114.223 264.644 114.076C264.465 113.926 264.113 113.751 263.589 113.549C263.091 113.363 262.736 113.202 262.524 113.065C262.316 112.925 262.16 112.768 262.056 112.592C261.955 112.416 261.904 112.206 261.904 111.962C261.904 111.526 262.082 111.182 262.437 110.932C262.791 110.678 263.278 110.551 263.896 110.551C264.473 110.551 265.036 110.668 265.586 110.902L265.298 111.562C264.761 111.34 264.274 111.229 263.838 111.229C263.454 111.229 263.164 111.29 262.969 111.41C262.773 111.531 262.676 111.697 262.676 111.908C262.676 112.051 262.712 112.174 262.783 112.274C262.858 112.375 262.977 112.471 263.14 112.562C263.302 112.654 263.615 112.785 264.077 112.958C264.712 113.189 265.14 113.422 265.361 113.656C265.586 113.891 265.698 114.185 265.698 114.54ZM270.474 114.54C270.474 115.038 270.288 115.422 269.917 115.692C269.546 115.963 269.025 116.098 268.354 116.098C267.645 116.098 267.091 115.985 266.694 115.761V115.009C266.951 115.139 267.227 115.242 267.52 115.316C267.816 115.391 268.101 115.429 268.374 115.429C268.797 115.429 269.123 115.362 269.351 115.229C269.578 115.092 269.692 114.885 269.692 114.608C269.692 114.4 269.601 114.223 269.419 114.076C269.24 113.926 268.888 113.751 268.364 113.549C267.866 113.363 267.511 113.202 267.3 113.065C267.091 112.925 266.935 112.768 266.831 112.592C266.73 112.416 266.68 112.206 266.68 111.962C266.68 111.526 266.857 111.182 267.212 110.932C267.567 110.678 268.053 110.551 268.672 110.551C269.248 110.551 269.811 110.668 270.361 110.902L270.073 111.562C269.536 111.34 269.049 111.229 268.613 111.229C268.229 111.229 267.939 111.29 267.744 111.41C267.549 111.531 267.451 111.697 267.451 111.908C267.451 112.051 267.487 112.174 267.559 112.274C267.633 112.375 267.752 112.471 267.915 112.562C268.078 112.654 268.39 112.785 268.853 112.958C269.487 113.189 269.915 113.422 270.137 113.656C270.361 113.891 270.474 114.185 270.474 114.54Z" fill="#565658"/>
<path opacity="0.3" d="M468 189H209C206.791 189 205 190.791 205 193V218C205 220.209 206.791 222 209 222H468C470.209 222 472 220.209 472 218V193C472 190.791 470.209 189 468 189Z" fill="white" stroke="black" stroke-width="1.5" stroke-linecap="round" stroke-linejoin="round" stroke-dasharray="1 5"/>
<path opacity="0.45" d="M328.866 456.5C469.047 456.5 582.687 448.675 582.687 439.023C582.687 429.371 469.047 421.546 328.866 421.546C188.684 421.546 75.0446 429.371 75.0446 439.023C75.0446 448.675 188.684 456.5 328.866 456.5Z" fill="#E0E0E0"/>
<path opacity="0.58" d="M266.755 418.857C266.755 418.857 252.504 414.958 249.278 401.649C249.278 401.649 271.46 397.212 272.132 420.067L266.755 418.857Z" fill="#0060F3"/>
<path opacity="0.73" d="M268.503 417.378C268.503 417.378 258.42 401.514 267.293 386.861C267.293 386.861 284.097 397.616 276.703 417.513L268.503 417.378Z" fill="#0060F3"/>
<path d="M271.057 417.378C271.057 417.378 276.3 400.708 292.298 397.481C292.298 397.481 295.256 408.371 281.946 417.378H271.057Z" fill="#0060F3"/>
<path d="M260.705 417.109L263.528 436.872L281.812 437.006L284.501 417.109H260.705Z" fill="#24285B"/>
<path opacity="0.08" d="M215.935 240.591L191.333 241.263L183.266 314.129H218.489C220.372 307.407 226.287 302.433 233.412 301.895C260.838 299.475 326 281 323.5 216L275.088 247.716L242.016 265.059L215.935 240.591Z" fill="black"/>
<path d="M167.942 208.594L172.647 222.71L161.489 229.701L157.456 205.368L167.942 208.594Z" fill="#F4A28C"/>
<path d="M153.692 191.789C155.574 187.353 160.817 185.336 165.253 187.218C166.329 187.756 167.404 188.428 168.211 189.369C172.916 194.344 178.697 202.41 172.244 206.847C162.296 213.568 153.288 201.066 153.288 201.066C152.482 197.974 152.616 194.747 153.692 191.789Z" fill="#F4A28C"/>
<path d="M160.951 200.528C160.951 200.528 158.397 198.377 157.321 201.469C156.246 204.561 160.682 205.905 162.027 204.427C163.237 202.813 160.951 200.528 160.951 200.528Z" fill="#F4A28C"/>
<path d="M152.078 229.836C152.078 229.836 112.284 254.035 107.041 310.499C106.1 320.179 112.419 329.186 121.964 331.472L168.614 342.765L152.078 229.836Z" fill="#0060F3"/>
<path opacity="0.2" d="M152.078 229.836C152.078 229.836 112.284 254.035 107.041 310.499C106.1 320.179 112.419 329.186 121.964 331.472L168.614 342.765L152.078 229.836Z" fill="white"/>
<g filter="url(#filter1_d)">
<path d="M147.731 272.9L62.0215 312.867C60.0193 313.8 59.153 316.18 60.0867 318.182L81.8561 364.867C82.7897 366.869 85.1697 367.735 87.1719 366.802L172.882 326.835C174.884 325.901 175.75 323.521 174.816 321.519L153.047 274.834C152.113 272.832 149.733 271.966 147.731 272.9Z" fill="white"/>
</g>
<path opacity="0.5" d="M149.273 299.866L83.8742 329.531C81.8624 330.444 80.9713 332.815 81.8838 334.826L88.1869 348.722C89.0995 350.734 91.4703 351.625 93.4821 350.712L158.881 321.047C160.893 320.134 161.784 317.764 160.871 315.752L154.568 301.856C153.656 299.844 151.285 298.953 149.273 299.866Z" stroke="black" stroke-width="1.5" stroke-linecap="round" stroke-linejoin="round" stroke-dasharray="1 5"/>
<path d="M81.022 325.251L76.6737 320.677L76.6381 320.693C77.0543 321.477 77.4224 322.221 77.7424 322.927L79.1766 326.089L78.2116 326.526L75.2627 320.025L76.7612 319.345L80.9125 323.698L80.9392 323.686L80.4521 317.671L81.9551 316.989L84.904 323.491L83.8813 323.954L82.4229 320.739C82.2764 320.416 82.0928 319.992 81.8723 319.466C81.6548 318.94 81.5271 318.619 81.4892 318.504L81.4536 318.52L81.9603 324.826L81.022 325.251ZM88.693 321.879C87.9282 322.226 87.2285 322.275 86.594 322.027C85.961 321.774 85.4671 321.257 85.1121 320.474C84.7477 319.671 84.6613 318.948 84.8531 318.307C85.0449 317.666 85.4906 317.187 86.1902 316.87C86.8395 316.575 87.4417 316.54 87.9971 316.763C88.5524 316.987 88.9868 317.444 89.3001 318.135L89.5562 318.699L86.279 320.186C86.5103 320.657 86.806 320.966 87.1661 321.113C87.5248 321.258 87.925 321.23 88.3668 321.03C88.6573 320.898 88.9149 320.749 89.1398 320.583C89.3662 320.412 89.5943 320.198 89.824 319.94L90.2093 320.789C90.0095 321.026 89.7905 321.229 89.5525 321.398C89.3145 321.567 89.028 321.727 88.693 321.879ZM86.5493 317.661C86.2172 317.812 85.9982 318.038 85.8921 318.34C85.7889 318.641 85.8095 319.001 85.9539 319.422L88.1861 318.409C87.996 318.006 87.759 317.743 87.4751 317.622C87.1899 317.498 86.8813 317.511 86.5493 317.661ZM94.4206 317.485C94.6385 317.965 94.631 318.413 94.3982 318.83C94.164 319.244 93.7208 319.598 93.0686 319.894C92.4135 320.191 91.8422 320.331 91.3549 320.312L90.9454 319.41C91.6445 319.414 92.2431 319.304 92.7411 319.078C93.3844 318.786 93.618 318.446 93.4419 318.057C93.3854 317.933 93.3027 317.845 93.1939 317.795C93.0851 317.744 92.929 317.711 92.7256 317.696C92.5223 317.681 92.2498 317.683 91.9081 317.702C91.2424 317.74 90.759 317.694 90.4579 317.567C90.1598 317.437 89.9314 317.198 89.7727 316.848C89.5817 316.427 89.6028 316.024 89.8358 315.64C90.0705 315.251 90.4799 314.924 91.0639 314.659C91.642 314.397 92.242 314.266 92.8641 314.266L92.8832 315.206C92.253 315.228 91.7571 315.32 91.3954 315.484C90.844 315.735 90.6396 316.017 90.7821 316.331C90.8521 316.485 90.9824 316.583 91.1731 316.626C91.3668 316.666 91.7476 316.671 92.3155 316.638C92.7929 316.611 93.1531 316.621 93.3961 316.668C93.639 316.715 93.844 316.804 94.0109 316.936C94.1765 317.065 94.3131 317.248 94.4206 317.485ZM98.8585 315.472C99.0764 315.952 99.0689 316.4 98.8361 316.817C98.6019 317.231 98.1587 317.585 97.5065 317.881C96.8514 318.178 96.2801 318.318 95.7928 318.299L95.3833 317.397C96.0824 317.401 96.681 317.291 97.179 317.065C97.8223 316.773 98.0559 316.433 97.8797 316.044C97.8233 315.92 97.7406 315.832 97.6318 315.782C97.523 315.731 97.3669 315.698 97.1635 315.683C96.9601 315.668 96.6876 315.67 96.346 315.689C95.6803 315.727 95.1969 315.681 94.8958 315.553C94.5976 315.424 94.3692 315.185 94.2106 314.835C94.0196 314.414 94.0407 314.011 94.2737 313.627C94.5084 313.238 94.9178 312.911 95.5018 312.646C96.0799 312.384 96.6799 312.253 97.302 312.253L97.3211 313.193C96.6909 313.215 96.195 313.307 95.8333 313.471C95.2819 313.722 95.0775 314.004 95.22 314.318C95.2899 314.472 95.4203 314.57 95.611 314.612C95.8046 314.653 96.1854 314.657 96.7534 314.625C97.2308 314.598 97.591 314.608 97.8339 314.655C98.0769 314.702 98.2819 314.791 98.4488 314.923C98.6144 315.052 98.751 315.235 98.8585 315.472ZM103.705 314.962L103.185 314.372L103.15 314.388C103.048 314.795 102.903 315.108 102.712 315.327C102.521 315.542 102.236 315.736 101.86 315.906C101.377 316.126 100.94 316.167 100.548 316.029C100.16 315.891 99.8581 315.583 99.6416 315.106C99.4116 314.599 99.4264 314.131 99.6859 313.702C99.9454 313.274 100.455 312.873 101.215 312.499L102.052 312.087L101.933 311.825C101.791 311.511 101.611 311.31 101.392 311.223C101.176 311.132 100.913 311.156 100.605 311.296C100.353 311.41 100.128 311.557 99.9307 311.736C99.7331 311.915 99.5504 312.103 99.3827 312.301L98.7059 311.707C98.9095 311.447 99.1538 311.209 99.4387 310.994C99.7223 310.776 100.005 310.603 100.287 310.476C100.912 310.192 101.445 310.114 101.886 310.243C102.33 310.371 102.684 310.727 102.949 311.311L104.452 314.623L103.705 314.962ZM101.826 314.957C102.205 314.785 102.461 314.542 102.594 314.228C102.729 313.909 102.709 313.559 102.536 313.176L102.342 312.749L101.723 313.063C101.239 313.304 100.918 313.549 100.76 313.8C100.603 314.046 100.593 314.32 100.731 314.622C100.83 314.842 100.973 314.983 101.158 315.045C101.342 315.105 101.565 315.075 101.826 314.957ZM107.833 307.16L108.093 307.733L107.323 308.27C107.448 308.339 107.569 308.438 107.688 308.566C107.807 308.694 107.905 308.843 107.981 309.012C108.211 309.519 108.217 309.997 107.999 310.446C107.781 310.895 107.365 311.259 106.752 311.537C106.595 311.609 106.447 311.661 106.309 311.695C106.147 311.937 106.108 312.151 106.193 312.338C106.244 312.451 106.334 312.511 106.463 312.521C106.596 312.529 106.803 312.469 107.084 312.341L107.942 311.952C108.485 311.706 108.949 311.634 109.336 311.738C109.722 311.841 110.015 312.111 110.212 312.547C110.465 313.104 110.43 313.638 110.108 314.149C109.786 314.66 109.19 315.112 108.322 315.506C107.652 315.81 107.086 315.923 106.626 315.846C106.166 315.769 105.836 315.511 105.637 315.072C105.5 314.77 105.479 314.472 105.575 314.179C105.675 313.887 105.878 313.623 106.186 313.387C106.02 313.39 105.861 313.348 105.71 313.259C105.56 313.166 105.453 313.047 105.387 312.902C105.304 312.718 105.285 312.539 105.331 312.364C105.377 312.19 105.474 311.994 105.622 311.777C105.317 311.782 105.029 311.699 104.757 311.525C104.487 311.348 104.277 311.093 104.126 310.761C103.884 310.227 103.864 309.737 104.066 309.292C104.271 308.845 104.684 308.481 105.307 308.198C105.446 308.135 105.596 308.08 105.757 308.032C105.919 307.98 106.043 307.946 106.13 307.932L107.833 307.16ZM106.547 314.595C106.649 314.821 106.828 314.949 107.085 314.979C107.345 315.007 107.658 314.938 108.026 314.772C108.595 314.513 108.982 314.24 109.187 313.95C109.391 313.661 109.433 313.381 109.31 313.111C109.213 312.898 109.067 312.78 108.871 312.758C108.68 312.738 108.376 312.822 107.961 313.01L107.17 313.369C106.87 313.505 106.663 313.683 106.549 313.903C106.438 314.124 106.438 314.355 106.547 314.595ZM105.14 310.301C105.28 310.609 105.466 310.811 105.698 310.905C105.934 310.999 106.2 310.978 106.496 310.844C107.101 310.569 107.257 310.109 106.964 309.463C106.818 309.143 106.631 308.931 106.402 308.828C106.174 308.72 105.908 308.735 105.603 308.874C105.3 309.011 105.109 309.201 105.03 309.444C104.954 309.686 104.991 309.972 105.14 310.301ZM113.168 310.777C112.403 311.124 111.704 311.173 111.069 310.925C110.436 310.672 109.942 310.155 109.587 309.372C109.223 308.569 109.136 307.846 109.328 307.205C109.52 306.564 109.966 306.085 110.665 305.768C111.315 305.473 111.917 305.438 112.472 305.661C113.027 305.885 113.462 306.342 113.775 307.033L114.031 307.597L110.754 309.084C110.985 309.554 111.281 309.864 111.641 310.011C112 310.156 112.4 310.128 112.842 309.928C113.132 309.796 113.39 309.647 113.615 309.481C113.841 309.31 114.069 309.096 114.299 308.838L114.684 309.687C114.485 309.924 114.266 310.127 114.028 310.296C113.79 310.465 113.503 310.625 113.168 310.777ZM111.024 306.559C110.692 306.71 110.473 306.936 110.367 307.238C110.264 307.539 110.285 307.899 110.429 308.32L112.661 307.307C112.471 306.904 112.234 306.641 111.95 306.52C111.665 306.396 111.356 306.409 111.024 306.559Z" fill="#565658"/>
<path d="M162.296 196.764C162.296 196.764 167.539 211.821 158.397 210.88C149.255 209.939 154.229 203.486 149.658 196.764C145.087 190.042 147.507 185.605 154.498 179.69C157.725 177.001 159.876 175.791 161.086 174.312C162.968 172.296 166.06 172.027 168.211 173.909C168.749 174.312 169.152 174.85 169.421 175.522C171.706 181.169 171.706 188.966 162.296 196.764Z" fill="#24285B"/>
<path d="M142.802 241.666C146.566 233.197 153.96 226.743 162.833 224.055C179.907 218.946 212.173 208.191 221.718 224.189C234.758 245.968 214.727 331.606 214.727 331.606L157.59 336.043C157.59 336.043 126.131 279.309 142.802 241.666Z" fill="#0060F3"/>
<path d="M214.861 331.606L207.333 430.016H195.368L184.747 353.654L158.531 336.043L214.861 331.606Z" fill="#24285B"/>
<path d="M158.531 336.043L141.995 430.016H154.767L182.327 352.041L158.531 336.043Z" fill="#24285B"/>
<path opacity="0.08" d="M167.942 222.71C167.942 222.71 141.189 308.886 218.491 314.667L214.861 331.74L157.59 336.043C144.415 312.919 137.828 286.569 138.231 259.95C138.231 259.95 138.769 237.902 154.229 228.222C158.397 225.399 162.968 223.517 167.942 222.71Z" fill="black"/>
<path d="M144.415 430.016L136.483 435.796C135.677 436.2 135.273 437.275 135.677 438.082C135.946 438.754 136.752 439.157 137.424 439.023H150.734C151.675 439.023 152.347 438.216 152.347 437.41V430.15L144.415 430.016Z" fill="#0060F3"/>
<path d="M206.929 430.016L214.324 435.796C215.13 436.334 215.265 437.544 214.592 438.216C214.324 438.62 213.786 438.888 213.248 438.888H203.837C201.014 438.888 198.863 436.603 198.863 433.914V430.016H206.929Z" fill="#0060F3"/>
<path d="M322.278 214.913C322.278 214.913 328.059 205.771 321.472 203.217C314.884 200.662 315.422 212.896 315.422 212.896L322.278 214.913Z" fill="#F4A28C"/>
<path d="M324.026 215.451L315.422 212.896L277.779 245.699C272.132 250.539 264.335 252.152 257.21 249.598C246.858 246.103 238.119 239.112 232.473 229.836C218.894 207.922 195.905 215.854 195.905 215.854C195.905 215.854 178.563 232.928 212.845 262.235C233.279 279.713 254.252 280.788 267.83 278.906C269.444 278.771 271.191 278.637 272.805 278.637C274.418 278.637 276.031 278.234 277.51 277.562C279.392 276.755 281.14 275.948 282.888 274.873C297.004 266.806 312.061 249.867 324.026 215.451Z" fill="#0060F3"/>
<path opacity="0.2" d="M324.026 215.451L315.422 212.896L277.779 245.699C272.132 250.539 264.335 252.152 257.21 249.598C246.858 246.103 238.119 239.112 232.473 229.836C218.894 207.922 195.905 215.854 195.905 215.854C195.905 215.854 178.563 232.928 212.845 262.235C233.279 279.713 254.252 280.788 267.83 278.906C269.444 278.771 271.191 278.637 272.805 278.637C274.418 278.637 276.031 278.234 277.51 277.562C279.392 276.755 281.14 275.948 282.888 274.873C297.004 266.806 312.061 249.867 324.026 215.451Z" fill="white"/>
<path d="M538.322 408.236H500.679V413.076H538.322V408.236Z" fill="#ADADAD"/>
<path d="M499.2 365.888L494.36 439.023H499.2L509.283 365.888H499.2Z" fill="#C9C9C9"/>
<path d="M538.188 365.888L543.027 439.023H538.188L528.239 365.888H538.188Z" fill="#C9C9C9"/>
<path d="M542.893 356.612H494.36V368.174H542.893V356.612Z" fill="#E6E6E6"/>
<path d="M532.676 352.579H522.996V350.428H532.676C534.154 350.428 535.23 349.218 535.23 347.873V341.017C535.23 339.538 534.02 338.462 532.676 338.462H522.996V336.311H532.676C535.23 336.311 537.381 338.462 537.381 341.017V347.873C537.381 350.428 535.364 352.579 532.676 352.579Z" fill="#0060F3"/>
<path d="M528.508 331.337H509.686V356.612H528.508V331.337Z" fill="url(#paint0_linear)"/>
<path opacity="0.08" d="M519.366 349.89C522.484 349.89 525.012 347.061 525.012 343.571C525.012 340.081 522.484 337.253 519.366 337.253C516.248 337.253 513.72 340.081 513.72 343.571C513.72 347.061 516.248 349.89 519.366 349.89Z" fill="black"/>
<g filter="url(#filter2_d)">
<path d="M513.017 330.919C513.017 330.919 507.52 312.722 522.086 310.793C536.652 308.863 556.44 312.722 549.02 290.666C541.599 268.886 531.98 273.573 542.699 248.759C553.417 223.946 582.274 268.058 592.718 244.899C603.161 221.74 617.727 229.736 632.293 241.04C646.859 252.343 649.608 288.185 621.025 293.699C592.443 299.213 586.671 305.279 580.9 321.269C575.129 337.26 545.722 330.643 545.722 330.643H513.017V330.919Z" fill="white"/>
</g>
<path d="M210.01 182.101C210.01 182.729 209.782 183.219 209.326 183.57C208.87 183.922 208.252 184.098 207.471 184.098C206.624 184.098 205.973 183.989 205.518 183.771V182.97C205.811 183.093 206.13 183.191 206.475 183.263C206.82 183.334 207.161 183.37 207.5 183.37C208.053 183.37 208.47 183.266 208.75 183.058C209.03 182.846 209.17 182.553 209.17 182.179C209.17 181.931 209.119 181.729 209.019 181.573C208.921 181.414 208.755 181.267 208.521 181.134C208.289 181 207.936 180.849 207.461 180.68C206.797 180.442 206.322 180.16 206.035 179.835C205.752 179.509 205.61 179.085 205.61 178.561C205.61 178.01 205.817 177.573 206.23 177.247C206.644 176.922 207.191 176.759 207.871 176.759C208.581 176.759 209.233 176.889 209.829 177.149L209.57 177.872C208.981 177.625 208.408 177.501 207.852 177.501C207.412 177.501 207.069 177.595 206.821 177.784C206.574 177.973 206.45 178.235 206.45 178.57C206.45 178.818 206.496 179.021 206.587 179.181C206.678 179.337 206.831 179.482 207.046 179.615C207.264 179.745 207.596 179.89 208.042 180.05C208.791 180.317 209.305 180.603 209.585 180.909C209.868 181.215 210.01 181.612 210.01 182.101ZM212.109 178.648V182.12C212.109 182.556 212.209 182.882 212.407 183.097C212.606 183.312 212.917 183.419 213.34 183.419C213.9 183.419 214.308 183.266 214.565 182.96C214.826 182.654 214.956 182.154 214.956 181.461V178.648H215.767V184H215.098L214.98 183.282H214.937C214.771 183.546 214.539 183.748 214.243 183.888C213.95 184.028 213.615 184.098 213.237 184.098C212.586 184.098 212.098 183.943 211.772 183.634C211.45 183.325 211.289 182.83 211.289 182.149V178.648H212.109ZM219.98 178.561C220.684 178.561 221.229 178.801 221.616 179.283C222.007 179.762 222.202 180.44 222.202 181.319C222.202 182.198 222.005 182.882 221.611 183.37C221.221 183.855 220.677 184.098 219.98 184.098C219.632 184.098 219.313 184.034 219.023 183.907C218.737 183.777 218.496 183.578 218.301 183.312H218.242L218.071 184H217.49V176.402H218.301V178.248C218.301 178.661 218.288 179.033 218.262 179.361H218.301C218.678 178.827 219.238 178.561 219.98 178.561ZM219.863 179.239C219.31 179.239 218.911 179.399 218.667 179.718C218.423 180.034 218.301 180.567 218.301 181.319C218.301 182.071 218.426 182.61 218.677 182.936C218.927 183.258 219.329 183.419 219.883 183.419C220.381 183.419 220.752 183.238 220.996 182.877C221.24 182.512 221.362 181.99 221.362 181.31C221.362 180.613 221.24 180.094 220.996 179.752C220.752 179.41 220.374 179.239 219.863 179.239ZM222.974 186.402C222.664 186.402 222.414 186.362 222.222 186.28V185.621C222.446 185.686 222.668 185.719 222.886 185.719C223.14 185.719 223.325 185.649 223.442 185.509C223.563 185.372 223.623 185.162 223.623 184.879V178.648H224.434V184.82C224.434 185.875 223.947 186.402 222.974 186.402ZM223.555 177.198C223.555 177.013 223.6 176.878 223.691 176.793C223.783 176.705 223.896 176.661 224.033 176.661C224.163 176.661 224.276 176.705 224.37 176.793C224.465 176.881 224.512 177.016 224.512 177.198C224.512 177.381 224.465 177.517 224.37 177.608C224.276 177.696 224.163 177.74 224.033 177.74C223.896 177.74 223.783 177.696 223.691 177.608C223.6 177.517 223.555 177.381 223.555 177.198ZM228.413 184.098C227.622 184.098 226.997 183.857 226.538 183.375C226.082 182.893 225.854 182.224 225.854 181.368C225.854 180.506 226.066 179.82 226.489 179.312C226.916 178.805 227.487 178.551 228.203 178.551C228.874 178.551 229.404 178.772 229.795 179.215C230.186 179.654 230.381 180.235 230.381 180.958V181.471H226.694C226.711 182.099 226.868 182.576 227.168 182.901C227.471 183.227 227.896 183.39 228.442 183.39C229.019 183.39 229.588 183.269 230.151 183.028V183.751C229.865 183.875 229.593 183.963 229.336 184.015C229.082 184.07 228.774 184.098 228.413 184.098ZM228.193 179.229C227.764 179.229 227.42 179.369 227.163 179.649C226.909 179.929 226.759 180.317 226.714 180.812H229.512C229.512 180.3 229.398 179.91 229.17 179.64C228.942 179.366 228.617 179.229 228.193 179.229ZM233.906 184.098C233.132 184.098 232.531 183.86 232.104 183.385C231.681 182.906 231.47 182.231 231.47 181.358C231.47 180.463 231.685 179.771 232.114 179.283C232.547 178.795 233.162 178.551 233.96 178.551C234.217 178.551 234.474 178.578 234.731 178.634C234.989 178.689 235.19 178.754 235.337 178.829L235.088 179.518C234.909 179.446 234.714 179.387 234.502 179.342C234.29 179.293 234.103 179.269 233.94 179.269C232.853 179.269 232.31 179.962 232.31 181.349C232.31 182.006 232.441 182.511 232.705 182.862C232.972 183.214 233.366 183.39 233.887 183.39C234.333 183.39 234.79 183.294 235.259 183.102V183.819C234.901 184.005 234.45 184.098 233.906 184.098ZM238.262 183.429C238.405 183.429 238.543 183.419 238.677 183.399C238.81 183.377 238.916 183.354 238.994 183.331V183.951C238.906 183.993 238.776 184.028 238.604 184.054C238.434 184.083 238.281 184.098 238.145 184.098C237.109 184.098 236.592 183.552 236.592 182.462V179.278H235.825V178.888L236.592 178.551L236.934 177.408H237.402V178.648H238.955V179.278H237.402V182.428C237.402 182.75 237.479 182.997 237.632 183.17C237.785 183.342 237.995 183.429 238.262 183.429Z" fill="#565658"/>
<path d="M470 246H389C387.895 246 387 246.895 387 248V272C387 273.105 387.895 274 389 274H470C471.105 274 472 273.105 472 272V248C472 246.895 471.105 246 470 246Z" fill="#0060F3"/>
<path d="M417.112 262.018C417.112 262.662 416.88 263.17 416.414 263.541C415.952 263.912 415.307 264.098 414.48 264.098C413.719 264.098 413.045 263.954 412.459 263.668V262.262C412.941 262.477 413.348 262.628 413.68 262.716C414.015 262.804 414.321 262.848 414.598 262.848C414.93 262.848 415.184 262.784 415.359 262.657C415.538 262.53 415.628 262.341 415.628 262.091C415.628 261.951 415.589 261.827 415.511 261.72C415.433 261.609 415.317 261.503 415.164 261.402C415.014 261.301 414.707 261.14 414.241 260.919C413.805 260.714 413.478 260.517 413.26 260.328C413.042 260.139 412.868 259.92 412.737 259.669C412.607 259.418 412.542 259.125 412.542 258.79C412.542 258.159 412.755 257.662 413.182 257.301C413.611 256.939 414.204 256.759 414.959 256.759C415.33 256.759 415.683 256.803 416.019 256.891C416.357 256.979 416.71 257.102 417.078 257.262L416.59 258.438C416.209 258.282 415.893 258.173 415.643 258.111C415.395 258.049 415.151 258.019 414.91 258.019C414.624 258.019 414.404 258.085 414.251 258.219C414.098 258.352 414.021 258.526 414.021 258.741C414.021 258.875 414.052 258.992 414.114 259.093C414.176 259.19 414.274 259.286 414.407 259.381C414.544 259.472 414.865 259.638 415.369 259.879C416.036 260.198 416.494 260.519 416.741 260.841C416.989 261.16 417.112 261.552 417.112 262.018ZM422.156 264L421.956 263.302H421.878C421.718 263.556 421.492 263.753 421.199 263.893C420.906 264.029 420.573 264.098 420.198 264.098C419.557 264.098 419.074 263.927 418.748 263.585C418.423 263.24 418.26 262.745 418.26 262.101V258.541H419.749V261.729C419.749 262.123 419.819 262.42 419.959 262.618C420.099 262.813 420.322 262.911 420.628 262.911C421.045 262.911 421.346 262.773 421.531 262.496C421.717 262.216 421.81 261.754 421.81 261.109V258.541H423.299V264H422.156ZM427.898 258.438C428.543 258.438 429.048 258.691 429.412 259.195C429.777 259.697 429.959 260.385 429.959 261.261C429.959 262.162 429.77 262.861 429.393 263.355C429.018 263.85 428.507 264.098 427.859 264.098C427.218 264.098 426.715 263.865 426.351 263.399H426.248L425.999 264H424.861V256.402H426.351V258.17C426.351 258.395 426.331 258.754 426.292 259.249H426.351C426.699 258.709 427.215 258.438 427.898 258.438ZM427.42 259.63C427.052 259.63 426.784 259.744 426.614 259.972C426.445 260.196 426.357 260.569 426.351 261.09V261.251C426.351 261.837 426.437 262.257 426.609 262.511C426.785 262.765 427.062 262.892 427.439 262.892C427.745 262.892 427.988 262.752 428.167 262.472C428.349 262.188 428.44 261.778 428.44 261.241C428.44 260.704 428.349 260.302 428.167 260.035C427.985 259.765 427.736 259.63 427.42 259.63ZM436.077 264H434.588V260.812C434.588 260.418 434.521 260.123 434.388 259.928C434.257 259.729 434.051 259.63 433.768 259.63C433.387 259.63 433.11 259.77 432.938 260.05C432.765 260.33 432.679 260.79 432.679 261.432V264H431.189V258.541H432.327L432.527 259.239H432.61C432.757 258.989 432.968 258.793 433.245 258.653C433.522 258.51 433.839 258.438 434.197 258.438C435.014 258.438 435.568 258.705 435.857 259.239H435.989C436.136 258.985 436.351 258.788 436.634 258.648C436.92 258.508 437.243 258.438 437.601 258.438C438.219 258.438 438.686 258.598 439.002 258.917C439.321 259.233 439.48 259.741 439.48 260.44V264H437.986V260.812C437.986 260.418 437.92 260.123 437.786 259.928C437.656 259.729 437.449 259.63 437.166 259.63C436.801 259.63 436.528 259.76 436.346 260.021C436.167 260.281 436.077 260.694 436.077 261.261V264ZM440.95 257.13C440.95 256.645 441.22 256.402 441.761 256.402C442.301 256.402 442.571 256.645 442.571 257.13C442.571 257.361 442.503 257.542 442.366 257.672C442.233 257.799 442.031 257.862 441.761 257.862C441.22 257.862 440.95 257.618 440.95 257.13ZM442.503 264H441.014V258.541H442.503V264ZM446.37 262.911C446.631 262.911 446.943 262.854 447.308 262.74V263.849C446.937 264.015 446.481 264.098 445.94 264.098C445.345 264.098 444.91 263.948 444.637 263.648C444.367 263.346 444.231 262.893 444.231 262.291V259.659H443.519V259.029L444.339 258.531L444.769 257.379H445.721V258.541H447.249V259.659H445.721V262.291C445.721 262.503 445.779 262.659 445.896 262.76C446.017 262.861 446.175 262.911 446.37 262.911Z" fill="white"/>
<g filter="url(#filter3_d)">
<path d="M92.0205 213.041C115.78 213.041 135.041 193.78 135.041 170.021C135.041 146.261 115.78 127 92.0205 127C68.261 127 49 146.261 49 170.021C49 193.78 68.261 213.041 92.0205 213.041Z" fill="white"/>
</g>
<path d="M105.282 153H96.9468L99.5011 157.302H107.836L105.282 153Z" fill="#5317AA"/>
<path d="M110.525 161.604H102.19L104.879 165.906H113.214L110.525 161.604Z" fill="#5317AA"/>
<path d="M110.391 183.114H109.181H105.416H78.663L91.9725 161.335L97.4845 170.208H96.2746H91.9725L89.4182 174.51H91.9725H93.7202H105.148L91.9725 153.269L71 187.416H74.7643H109.181H113.079L110.391 183.114Z" fill="#5317AA"/>
<g filter="url(#filter4_d)">
<path d="M61.0205 123.041C78.1527 123.041 92.0411 109.153 92.0411 92.0206C92.0411 74.8884 78.1527 61.0001 61.0205 61.0001C43.8884 61.0001 30 74.8884 30 92.0206C30 109.153 43.8884 123.041 61.0205 123.041Z" fill="white"/>
</g>
<path d="M71.2961 81.3573C69.6481 82.3267 68.0971 83.5869 66.7399 84.9441C65.3828 86.3012 64.1226 87.8522 63.1532 89.4032C63.8317 90.7604 64.4134 92.1175 64.8981 93.5716C65.7705 91.7298 66.8369 90.0818 68.194 88.6277V93.8624C68.194 97.0614 66.0614 99.8727 62.9593 100.745H62.7654C62.5715 98.2247 61.9899 95.8012 61.1175 93.4747C59.8573 90.2757 57.9185 87.3675 55.398 84.9441C54.0409 83.5869 52.4899 82.4236 50.8419 81.3573L50.4542 81.1634V93.7655C50.4542 98.9033 54.1378 103.362 59.2756 104.235H59.3725C60.5358 104.429 61.6991 104.429 62.7654 104.235H62.8624C68.0001 103.362 71.6838 98.9033 71.6838 93.7655V81.1634L71.2961 81.3573ZM53.9439 93.7655V88.6277C56.9491 92.0206 58.7909 96.189 59.1787 100.648C56.0766 99.7757 53.9439 96.9645 53.9439 93.7655ZM61.0205 79.6124C59.5664 79.6124 58.4032 80.7756 58.4032 82.2297C58.4032 83.6838 59.5664 84.8471 61.0205 84.8471C62.4746 84.8471 63.6379 83.6838 63.6379 82.2297C63.6379 80.7756 62.4746 79.6124 61.0205 79.6124Z" fill="#475BB2"/>
<defs>
<filter id="filter0_d" x="169" y="0" width="384" height="350" filterUnits="userSpaceOnUse" color-interpolation-filters="sRGB">
<feFlood flood-opacity="0" result="BackgroundImageFix"/>
<feColorMatrix in="SourceAlpha" type="matrix" values="0 0 0 0 0 0 0 0 0 0 0 0 0 0 0 0 0 0 127 0"/>
<feOffset dx="20" dy="20"/>
<feGaussianBlur stdDeviation="15"/>
<feColorMatrix type="matrix" values="0 0 0 0 0 0 0 0 0 0.376471 0 0 0 0 0.952941 0 0 0 0.1 0"/>
<feBlend mode="normal" in2="BackgroundImageFix" result="effect1_dropShadow"/>
<feBlend mode="normal" in="SourceGraphic" in2="effect1_dropShadow" result="shape"/>
</filter>
<filter id="filter1_d" x="47.7109" y="254.524" width="155.481" height="134.654" filterUnits="userSpaceOnUse" color-interpolation-filters="sRGB">
<feFlood flood-opacity="0" result="BackgroundImageFix"/>
<feColorMatrix in="SourceAlpha" type="matrix" values="0 0 0 0 0 0 0 0 0 0 0 0 0 0 0 0 0 0 127 0"/>
<feOffset dx="8" dy="2"/>
<feGaussianBlur stdDeviation="10"/>
<feColorMatrix type="matrix" values="0 0 0 0 0 0 0 0 0 0 0 0 0 0 0 0 0 0 0.2 0"/>
<feBlend mode="normal" in2="BackgroundImageFix" result="effect1_dropShadow"/>
<feBlend mode="normal" in="SourceGraphic" in2="effect1_dropShadow" result="shape"/>
</filter>
<filter id="filter2_d" x="502" y="220" width="191" height="162" filterUnits="userSpaceOnUse" color-interpolation-filters="sRGB">
<feFlood flood-opacity="0" result="BackgroundImageFix"/>
<feColorMatrix in="SourceAlpha" type="matrix" values="0 0 0 0 0 0 0 0 0 0 0 0 0 0 0 0 0 0 127 0"/>
<feOffset dx="20" dy="20"/>
<feGaussianBlur stdDeviation="15"/>
<feColorMatrix type="matrix" values="0 0 0 0 0.227451 0 0 0 0 0.482353 0 0 0 0 0.835294 0 0 0 0.1 0"/>
<feBlend mode="normal" in2="BackgroundImageFix" result="effect1_dropShadow"/>
<feBlend mode="normal" in="SourceGraphic" in2="effect1_dropShadow" result="shape"/>
</filter>
<filter id="filter3_d" x="19" y="97.0001" width="146.041" height="146.041" filterUnits="userSpaceOnUse" color-interpolation-filters="sRGB">
<feFlood flood-opacity="0" result="BackgroundImageFix"/>
<feColorMatrix in="SourceAlpha" type="matrix" values="0 0 0 0 0 0 0 0 0 0 0 0 0 0 0 0 0 0 127 0"/>
<feOffset/>
<feGaussianBlur stdDeviation="15"/>
<feColorMatrix type="matrix" values="0 0 0 0 0 0 0 0 0 0.376471 0 0 0 0 0.952941 0 0 0 0.3 0"/>
<feBlend mode="normal" in2="BackgroundImageFix" result="effect1_dropShadow"/>
<feBlend mode="normal" in="SourceGraphic" in2="effect1_dropShadow" result="shape"/>
</filter>
<filter id="filter4_d" x="0" y="31.0001" width="122.041" height="122.041" filterUnits="userSpaceOnUse" color-interpolation-filters="sRGB">
<feFlood flood-opacity="0" result="BackgroundImageFix"/>
<feColorMatrix in="SourceAlpha" type="matrix" values="0 0 0 0 0 0 0 0 0 0 0 0 0 0 0 0 0 0 127 0"/>
<feOffset/>
<feGaussianBlur stdDeviation="15"/>
<feColorMatrix type="matrix" values="0 0 0 0 0 0 0 0 0 0.376471 0 0 0 0 0.952941 0 0 0 0.3 0"/>
<feBlend mode="normal" in2="BackgroundImageFix" result="effect1_dropShadow"/>
<feBlend mode="normal" in="SourceGraphic" in2="effect1_dropShadow" result="shape"/>
</filter>
<linearGradient id="paint0_linear" x1="533.5" y1="364" x2="500.344" y2="358.481" gradientUnits="userSpaceOnUse">
<stop stop-color="#0060F3"/>
<stop offset="0.576119" stop-color="#0068F3"/>
<stop offset="1" stop-color="#0092FF" stop-opacity="0.5"/>
</linearGradient>
</defs>
</svg>
